<?xml version="1.0" encoding="utf-8"?>
<!-- Generator: $$$/GeneralStr/196=Adobe Illustrator 27.6.0, SVG Export Plug-In . SVG Version: 6.00 Build 0)  -->
<svg version="1.1" id="Calque_1" xmlns="http://www.w3.org/2000/svg" xmlns:xlink="http://www.w3.org/1999/xlink" x="0px" y="0px"
	 viewBox="0 0 149 121.9" style="enable-background:new 0 0 149 121.9;" xml:space="preserve">
<style type="text/css">
	.st0{fill:#0062FF;}
	.st1{fill:#FFFFFF;}
</style>
<rect x="-0.5" y="-1.1" class="st0" width="150" height="123.7"/>
<g>
	<path class="st1" d="M33.4,34.5L33.4,34.5v33.8h13.2v15.4c-1.1-0.3-1.8-0.8-2.9-1.7c-2.1-1.6-4.9-3.9-10.2-3.9v9.6
		c2,0,2.8,0.6,4.4,1.9c2.1,1.6,4.9,3.9,10.2,3.9c5.3,0,8.1-2.2,10.2-3.9c1.6-1.2,2.4-1.9,4.4-1.9c2.1,0,2.8,0.6,4.4,1.9
		c2.1,1.6,4.9,3.9,10.2,3.9s8.1-2.2,10.2-3.9c1.6-1.2,2.4-1.9,4.4-1.9c2.1,0,2.8,0.6,4.4,1.9c2.1,1.6,4.9,3.9,10.2,3.9
		s8.1-2.2,10.2-3.9c1.6-1.2,2.4-1.9,4.4-1.9v-9.6c-5.3,0-8.1,2.2-10.2,3.9c-1.1,0.9-1.9,1.4-2.9,1.7V68.3h13.2v0h0V34.5L33.4,34.5
		L33.4,34.5z M98.7,79.6c-1.7-0.8-3.8-1.5-6.6-1.5c-5.3,0-8.1,2.2-10.2,3.9c-1.6,1.2-2.4,1.9-4.4,1.9c-2.1,0-2.8-0.6-4.4-1.9
		c-2.1-1.6-4.9-3.9-10.2-3.9c-2.8,0-4.9,0.6-6.6,1.4V68.3h42.5V79.6z M43.1,44.1h68.8v14.6H43.1V44.1z"/>
</g>
</svg>
