<?xml version="1.0" encoding="utf-8"?>
<!-- Generator: $$$/GeneralStr/196=Adobe Illustrator 27.6.0, SVG Export Plug-In . SVG Version: 6.00 Build 0)  -->
<svg version="1.1" id="Calque_1" xmlns="http://www.w3.org/2000/svg" xmlns:xlink="http://www.w3.org/1999/xlink" x="0px" y="0px"
	 viewBox="0 0 805.9 235.1" style="enable-background:new 0 0 805.9 235.1;" xml:space="preserve">
<style type="text/css">
	.st0{fill:#0062FF;}
</style>
<g>
	<polygon class="st0" points="216.5,88 205.5,88 205.5,145.8 237.3,145.8 237.3,136.2 216.5,136.2 	"/>
	<path class="st0" d="M273.6,107.4c0,2.2,0.1,2.9,0.2,3.5h-0.3c-2.1-3.7-6.8-6.3-12.9-6.3c-11.4,0-19.9,8.7-19.9,21.2
		c0,12.5,8,21.2,19.4,21.2c6.1,0,11-2.6,13.3-6.8h0.3c-0.1,0.8-0.2,1.9-0.2,3.7v1.8h9.9v-39.9h-9.9V107.4z M262.3,137.5
		c-6.2,0-10.8-4.9-10.8-11.8c0-6.9,4.5-11.6,10.8-11.6c6.3,0,10.9,4.8,10.9,11.6C273.2,132.6,268.6,137.5,262.3,137.5z"/>
	<path class="st0" d="M312.9,145.8h10.9v-20.3h29.4V88h-40.3V145.8z M323.9,97.6h18.4v18.5h-18.4V97.6z"/>
	<polygon class="st0" points="373.2,88 362.4,88 362.4,145.8 381.5,145.8 381.5,136.4 373.2,136.4 	"/>
	<path class="st0" d="M417.8,107.4c0,2.2,0.1,2.9,0.2,3.5h-0.3c-2.1-3.7-6.8-6.3-12.9-6.3c-11.4,0-19.9,8.7-19.9,21.2
		c0,12.5,8,21.2,19.4,21.2c6.1,0,11-2.6,13.3-6.8h0.3c-0.1,0.8-0.2,1.9-0.2,3.7v1.8h9.9v-39.9h-9.9V107.4z M406.6,137.5
		c-6.2,0-10.8-4.9-10.8-11.8c0-6.9,4.5-11.6,10.8-11.6c6.3,0,10.9,4.8,10.9,11.6C417.4,132.6,412.9,137.5,406.6,137.5z"/>
	<polygon class="st0" points="450.6,95.7 439.8,95.7 439.8,105.9 436,105.9 436,115.1 439.8,115.1 439.8,145.8 458.7,145.8 
		458.7,136.4 450.6,136.4 450.6,115.1 459.8,115.1 459.8,105.9 450.6,105.9 	"/>
	<path class="st0" d="M485.2,104.7c-12.4,0-21.3,8.8-21.3,21.2c0,12.3,8.8,21.2,21.4,21.2c6.8,0,12.3-2.4,16.3-7.7l-6.2-6.5
		c-2.6,3.3-5.5,4.7-10,4.7c-5.5,0-9.2-3-10.3-8.2h29.4c0.2-1,0.3-2.3,0.3-3.4C504.8,113.5,496.9,104.7,485.2,104.7z M475.1,122.4
		c1.1-5.2,4.6-8.3,9.9-8.3c5,0,8.5,3.3,9.2,8.3H475.1z"/>
	<polygon class="st0" points="513.8,105.9 510,105.9 510,115.1 513.8,115.1 513.8,145.8 524.6,145.8 524.6,115.1 533.5,115.1 
		533.5,105.9 524.6,105.9 524.6,97 533.7,97 533.7,88 513.8,88 	"/>
	<path class="st0" d="M558,104.7c-12.4,0-21.3,8.9-21.3,21.2c0,12.3,8.9,21.2,21.3,21.2c12.4,0,21.4-8.9,21.4-21.2
		C579.4,113.5,570.4,104.7,558,104.7z M558,137.5c-6.2,0-10.6-4.9-10.6-11.8c0-6.9,4.3-11.6,10.6-11.6c6.3,0,10.6,4.8,10.6,11.6
		C568.6,132.6,564.3,137.5,558,137.5z"/>
	<polygon class="st0" points="587.3,145.8 598.1,145.8 598.1,115.4 606.6,115.4 606.6,105.9 587.3,105.9 	"/>
	<polygon class="st0" points="613.4,145.8 624.2,145.8 624.2,115.1 635.9,115.1 635.9,145.8 646.7,145.8 646.7,115.1 658.4,115.1 
		658.4,145.8 669.2,145.8 669.2,105.9 613.4,105.9 	"/>
	<path class="st0" d="M717.9,125.8c0-12.3-7.9-21.2-19.6-21.2c-12.4,0-21.3,8.8-21.3,21.2c0,12.3,8.8,21.2,21.4,21.2
		c6.8,0,12.3-2.4,16.3-7.7l-6.2-6.5c-2.6,3.3-5.5,4.7-10,4.7c-5.5,0-9.2-3-10.3-8.2h29.4C717.8,128.2,717.9,126.9,717.9,125.8z
		 M688.2,122.4c1.1-5.2,4.6-8.3,9.9-8.3c5,0,8.5,3.3,9.2,8.3H688.2z"/>
	<path class="st0" d="M88,88.1L88,88.1v33.8h13.2v15.4c-1.1-0.3-1.8-0.8-2.9-1.7c-2.1-1.6-4.9-3.9-10.2-3.9v9.6c2,0,2.8,0.6,4.4,1.9
		c2.1,1.6,4.9,3.9,10.2,3.9c5.3,0,8.1-2.2,10.2-3.9c1.6-1.2,2.4-1.9,4.4-1.9c2.1,0,2.8,0.6,4.4,1.9c2.1,1.6,4.9,3.9,10.2,3.9
		c5.3,0,8.1-2.2,10.2-3.9c1.6-1.2,2.4-1.9,4.4-1.9c2.1,0,2.8,0.6,4.4,1.9c2.1,1.6,4.9,3.9,10.2,3.9c5.3,0,8.1-2.2,10.2-3.9
		c1.6-1.2,2.4-1.9,4.4-1.9v-9.6c-5.3,0-8.1,2.2-10.2,3.9c-1.1,0.9-1.9,1.4-2.9,1.7v-15.4H176v0h0V88L88,88.1L88,88.1z M153.3,133.2
		c-1.7-0.8-3.8-1.5-6.6-1.5c-5.3,0-8.1,2.2-10.2,3.9c-1.6,1.2-2.4,1.9-4.4,1.9c-2.1,0-2.8-0.6-4.4-1.9c-2.1-1.6-4.9-3.9-10.2-3.9
		c-2.8,0-4.9,0.6-6.6,1.4v-11.3h42.5V133.2z M97.6,97.7h68.8v14.6H97.6V97.7z"/>
</g>
</svg>
