<?xml version="1.0" encoding="UTF-8"?>
<svg id="Calque_2" data-name="Calque 2" xmlns="http://www.w3.org/2000/svg" viewBox="0 0 355.25 319.72">
  <defs>
    <style>
      .cls-1 {
        fill: #3762fb;
        stroke-width: 0px;
      }
    </style>
  </defs>
  <g id="Calque_1-2" data-name="Calque 1">
    <g>
      <polygon class="cls-1" points="142.1 0 142.1 35.52 106.57 35.52 106.57 71.05 71.05 71.05 71.05 106.57 35.52 106.57 0 106.57 0 142.1 0 177.62 0 213.15 35.52 213.15 71.05 213.15 71.05 248.67 106.57 248.67 106.57 284.2 142.1 284.2 142.1 319.72 177.62 319.72 213.15 319.72 213.15 284.2 213.15 248.67 213.15 213.15 213.15 177.62 213.15 142.1 213.15 106.57 213.15 71.05 213.15 35.52 213.15 0 177.62 0 142.1 0"/>
      <rect class="cls-1" x="284.2" y="35.52" width="35.52" height="35.52"/>
      <rect class="cls-1" x="248.67" y="71.05" width="35.52" height="35.52"/>
      <polygon class="cls-1" points="284.2 142.1 248.67 142.1 248.67 177.62 284.2 177.62 319.72 177.62 355.25 177.62 355.25 142.1 319.72 142.1 284.2 142.1"/>
      <rect class="cls-1" x="284.2" y="248.67" width="35.52" height="35.52"/>
      <rect class="cls-1" x="248.67" y="213.15" width="35.52" height="35.52"/>
      <rect class="cls-1" x="319.72" width="35.52" height="35.52"/>
      <rect class="cls-1" x="319.72" y="284.2" width="35.52" height="35.52"/>
    </g>
  </g>
</svg>