<?xml version="1.0" encoding="UTF-8"?>
<svg id="Calque_2" data-name="Calque 2" xmlns="http://www.w3.org/2000/svg" viewBox="0 0 361.31 250.14">
  <defs>
    <style>
      .cls-1 {
        fill: #3762fb;
        stroke-width: 0px;
      }
    </style>
  </defs>
  <g id="Calque_1-2" data-name="Calque 1">
    <g>
      <polygon class="cls-1" points="111.17 27.79 138.96 27.79 138.96 0 111.17 0 83.38 0 55.59 0 55.59 27.79 83.38 27.79 111.17 27.79"/>
      <polygon class="cls-1" points="277.93 27.79 305.72 27.79 305.72 0 277.93 0 250.14 0 222.34 0 222.34 27.79 250.14 27.79 277.93 27.79"/>
      <polygon class="cls-1" points="55.59 55.59 55.59 27.79 27.79 27.79 27.79 55.59 0 55.59 0 83.38 27.79 83.38 27.79 111.17 55.59 111.17 55.59 83.38 55.59 55.59"/>
      <rect class="cls-1" x="83.38" y="55.59" width="27.79" height="27.79"/>
      <polygon class="cls-1" points="222.34 55.59 222.34 27.79 194.55 27.79 194.55 55.59 166.76 55.59 166.76 27.79 138.96 27.79 138.96 55.59 138.96 83.38 138.96 111.17 166.76 111.17 166.76 83.38 194.55 83.38 194.55 111.17 222.34 111.17 222.34 83.38 222.34 55.59"/>
      <rect class="cls-1" x="250.14" y="55.59" width="27.79" height="27.79"/>
      <polygon class="cls-1" points="333.52 55.59 333.52 27.79 305.72 27.79 305.72 55.59 305.72 83.38 305.72 111.17 333.52 111.17 333.52 83.38 361.31 83.38 361.31 55.59 333.52 55.59"/>
      <polygon class="cls-1" points="83.38 111.17 55.59 111.17 55.59 138.96 83.38 138.96 111.17 138.96 138.96 138.96 138.96 111.17 111.17 111.17 83.38 111.17"/>
      <polygon class="cls-1" points="250.14 111.17 222.34 111.17 222.34 138.96 250.14 138.96 277.93 138.96 305.72 138.96 305.72 111.17 277.93 111.17 250.14 111.17"/>
      <polygon class="cls-1" points="166.76 222.34 138.96 222.34 138.96 250.14 166.76 250.14 194.55 250.14 222.34 250.14 222.34 222.34 194.55 222.34 166.76 222.34"/>
      <polygon class="cls-1" points="194.55 166.76 194.55 138.96 166.76 138.96 166.76 166.76 166.76 194.55 194.55 194.55 194.55 166.76"/>
      <rect class="cls-1" x="111.17" y="194.55" width="27.79" height="27.79"/>
      <rect class="cls-1" x="222.34" y="194.55" width="27.79" height="27.79"/>
    </g>
  </g>
</svg>