<?xml version="1.0" encoding="UTF-8"?>
<svg id="Calque_2" data-name="Calque 2" xmlns="http://www.w3.org/2000/svg" viewBox="0 0 246.15 351.64">
  <defs>
    <style>
      .cls-1 {
        fill: #3762fb;
        stroke-width: 0px;
      }
    </style>
  </defs>
  <g id="Calque_1-2" data-name="Calque 1">
    <g>
      <polygon class="cls-1" points="210.99 35.16 210.99 0 175.82 0 140.66 0 105.49 0 70.33 0 35.16 0 35.16 35.16 0 35.16 0 70.33 0 105.49 0 140.66 35.16 140.66 35.16 105.49 35.16 70.33 70.33 70.33 70.33 35.16 105.49 35.16 140.66 35.16 175.82 35.16 175.82 70.33 210.99 70.33 210.99 105.49 210.99 140.66 210.99 175.82 246.15 175.82 246.15 140.66 246.15 105.49 246.15 70.33 246.15 35.16 210.99 35.16"/>
      <polygon class="cls-1" points="140.66 175.82 140.66 210.99 175.82 210.99 210.99 210.99 210.99 175.82 175.82 175.82 140.66 175.82"/>
      <polygon class="cls-1" points="105.49 246.15 105.49 281.31 140.66 281.31 140.66 246.15 140.66 210.99 105.49 210.99 105.49 246.15"/>
      <rect class="cls-1" x="105.49" y="316.48" width="35.16" height="35.16"/>
    </g>
  </g>
</svg>