<?xml version="1.0" encoding="utf-8"?>
<!-- Generator: $$$/GeneralStr/196=Adobe Illustrator 27.6.0, SVG Export Plug-In . SVG Version: 6.00 Build 0)  -->
<svg version="1.1" id="Calque_1" xmlns="http://www.w3.org/2000/svg" xmlns:xlink="http://www.w3.org/1999/xlink" x="0px" y="0px"
	 viewBox="0 0 665 238.5" style="enable-background:new 0 0 665 238.5;" xml:space="preserve">
<style type="text/css">
	.st0{fill:#0062FF;}
</style>
<g>
	<g>
		<polygon class="st0" points="178.8,72.6 169.7,72.6 169.7,120.3 195.9,120.3 195.9,112.3 178.8,112.3 		"/>
	</g>
	<g>
		<path class="st0" d="M225.9,88.6c0,1.8,0.1,2.4,0.1,2.9h-0.3c-1.7-3.1-5.6-5.2-10.6-5.2c-9.4,0-16.4,7.2-16.4,17.5
			c0,10.3,6.6,17.5,16,17.5c5,0,9.1-2.2,11-5.6h0.3c-0.1,0.7-0.1,1.6-0.1,3.1v1.5h8.1V87.3h-8.1V88.6z M216.6,113.4
			c-5.1,0-8.9-4-8.9-9.7c0-5.7,3.8-9.6,8.9-9.6c5.2,0,9,3.9,9,9.6C225.5,109.4,221.8,113.4,216.6,113.4z"/>
	</g>
	<g>
		<path class="st0" d="M258.3,120.3h9v-16.8h24.2V72.6h-33.2V120.3z M267.3,80.5h15.2v15.3h-15.2V80.5z"/>
	</g>
	<g>
		<polygon class="st0" points="308,72.6 299.1,72.6 299.1,120.3 314.9,120.3 314.9,112.5 308,112.5 		"/>
	</g>
	<g>
		<path class="st0" d="M344.9,88.6c0,1.8,0.1,2.4,0.1,2.9h-0.3c-1.7-3.1-5.6-5.2-10.6-5.2c-9.4,0-16.4,7.2-16.4,17.5
			c0,10.3,6.6,17.5,16,17.5c5,0,9.1-2.2,11-5.6h0.3c-0.1,0.7-0.1,1.6-0.1,3.1v1.5h8.1V87.3h-8.1V88.6z M335.6,113.4
			c-5.1,0-8.9-4-8.9-9.7c0-5.7,3.7-9.6,8.9-9.6c5.2,0,9,3.9,9,9.6C344.5,109.4,340.8,113.4,335.6,113.4z"/>
	</g>
	<g>
		<polygon class="st0" points="371.9,79 363,79 363,87.3 359.9,87.3 359.9,95 363,95 363,120.3 378.5,120.3 378.5,112.5 
			371.9,112.5 371.9,95 379.5,95 379.5,87.3 371.9,87.3 		"/>
	</g>
	<g>
		<path class="st0" d="M400.5,86.3c-10.2,0-17.5,7.2-17.5,17.5c0,10.1,7.2,17.5,17.7,17.5c5.6,0,10.1-2,13.5-6.4l-5.1-5.4
			c-2.2,2.7-4.6,3.9-8.3,3.9c-4.6,0-7.6-2.5-8.5-6.8h24.2c0.2-0.8,0.3-1.9,0.3-2.8C416.6,93.6,410.1,86.3,400.5,86.3z M392.1,100.9
			c0.9-4.3,3.8-6.9,8.1-6.9c4.1,0,7,2.7,7.6,6.9H392.1z"/>
	</g>
	<g>
		<polygon class="st0" points="424,87.3 420.9,87.3 420.9,95 424,95 424,120.3 432.9,120.3 432.9,95 440.3,95 440.3,87.3 
			432.9,87.3 432.9,80 440.4,80 440.4,72.6 424,72.6 		"/>
	</g>
	<g>
		<path class="st0" d="M460.5,86.3c-10.2,0-17.6,7.3-17.6,17.5c0,10.1,7.4,17.5,17.6,17.5s17.7-7.4,17.7-17.5
			C478.2,93.6,470.7,86.3,460.5,86.3z M460.5,113.4c-5.1,0-8.7-4-8.7-9.7c0-5.7,3.6-9.6,8.7-9.6c5.2,0,8.7,3.9,8.7,9.6
			C469.2,109.4,465.7,113.4,460.5,113.4z"/>
	</g>
	<g>
		<polygon class="st0" points="484.7,120.3 493.6,120.3 493.6,95.2 500.5,95.2 500.5,87.3 484.7,87.3 		"/>
	</g>
	<g>
		<polygon class="st0" points="506.2,120.3 515.1,120.3 515.1,95 524.8,95 524.8,120.3 533.6,120.3 533.6,95 543.3,95 543.3,120.3 
			552.2,120.3 552.2,87.3 506.2,87.3 		"/>
	</g>
	<g>
		<path class="st0" d="M592.4,103.8c0-10.2-6.5-17.5-16.1-17.5c-10.2,0-17.5,7.2-17.5,17.5c0,10.1,7.2,17.5,17.7,17.5
			c5.6,0,10.1-2,13.5-6.4l-5.1-5.4c-2.2,2.7-4.6,3.9-8.3,3.9c-4.6,0-7.6-2.5-8.5-6.8h24.2C592.3,105.8,592.4,104.7,592.4,103.8z
			 M567.9,100.9c0.9-4.3,3.8-6.9,8.1-6.9c4.1,0,7,2.7,7.6,6.9H567.9z"/>
	</g>
	<g>
		<path class="st0" d="M72.8,72.6L72.8,72.6v27.9h10.9v12.7c-0.9-0.2-1.5-0.7-2.4-1.4c-1.7-1.3-4.1-3.2-8.4-3.2v7.9
			c1.7,0,2.3,0.5,3.7,1.5c1.7,1.3,4.1,3.2,8.4,3.2c4.4,0,6.7-1.8,8.4-3.2c1.3-1,2-1.5,3.7-1.5c1.7,0,2.3,0.5,3.7,1.5
			c1.7,1.3,4.1,3.2,8.4,3.2s6.7-1.8,8.4-3.2c1.3-1,2-1.5,3.7-1.5c1.7,0,2.3,0.5,3.7,1.5c1.7,1.3,4.1,3.2,8.4,3.2
			c4.4,0,6.7-1.8,8.4-3.2c1.3-1,2-1.5,3.7-1.5v-7.9c-4.4,0-6.7,1.8-8.4,3.2c-0.9,0.7-1.5,1.2-2.4,1.4v-12.7h10.8v0h0V72.6L72.8,72.6
			L72.8,72.6z M126.6,109.8c-1.4-0.7-3.1-1.2-5.4-1.2c-4.4,0-6.7,1.8-8.4,3.2c-1.3,1-2,1.5-3.7,1.5c-1.7,0-2.3-0.5-3.7-1.5
			c-1.7-1.3-4.1-3.2-8.4-3.2c-2.3,0-4,0.5-5.4,1.2v-9.3h35V109.8z M80.7,80.6h56.7v12H80.7V80.6z"/>
	</g>
</g>
<g>
	<g>
		<path class="st0" d="M72.9,139.7h2.9v17.5h8v2.6H72.9V139.7z"/>
	</g>
	<g>
		<path class="st0" d="M92.1,145.5c2.5,0,4.3,1.2,4.9,2.6h0.1c0-0.3-0.1-0.6-0.1-1.4V146h2.6v13.8h-2.6v-1c0-0.6,0-1,0.1-1.4H97
			c-0.7,1.6-2.6,2.8-5,2.8c-4.2,0-7-3.1-7-7.3C85.1,148.6,88,145.5,92.1,145.5z M97,152.8c0-2.8-1.9-4.8-4.5-4.8
			c-2.6,0-4.5,2-4.5,4.8c0,2.8,1.9,4.8,4.5,4.8C95.1,157.6,97,155.6,97,152.8z"/>
	</g>
	<g>
		<path class="st0" d="M116.6,145.5c2.4,0,4.3,1.1,5,2.6h0.1c0-0.3-0.1-0.7-0.1-1.3V146h2.6v19.9h-10.3v-2.5h7.4v-4.8
			c0-0.7,0-1,0.1-1.4h-0.1c-0.6,1.4-2.4,2.5-4.7,2.5c-3.9,0-6.9-3-6.9-7.1C109.9,148.5,112.7,145.5,116.6,145.5z M112.8,152.6
			c0,2.6,1.9,4.5,4.4,4.5c2.5,0,4.4-1.9,4.4-4.5c0-2.6-1.8-4.5-4.4-4.5C114.7,148.1,112.8,150,112.8,152.6z"/>
	</g>
	<g>
		<path class="st0" d="M135,146v2.6h-3.5v11.2h-2.9V146H135z"/>
	</g>
	<g>
		<path class="st0" d="M143.5,145.5c2.5,0,4.3,1.2,4.9,2.6h0.1c0-0.3-0.1-0.6-0.1-1.4V146h2.6v13.8h-2.6v-1c0-0.6,0-1,0.1-1.4h-0.1
			c-0.7,1.6-2.6,2.8-5,2.8c-4.2,0-7-3.1-7-7.3C136.5,148.6,139.4,145.5,143.5,145.5z M148.4,152.8c0-2.8-1.9-4.8-4.5-4.8
			c-2.6,0-4.5,2-4.5,4.8c0,2.8,1.9,4.8,4.5,4.8C146.5,157.6,148.4,155.6,148.4,152.8z"/>
	</g>
	<g>
		<path class="st0" d="M160.9,145.5c3.4,0,5.8,2.2,5.8,5.5v8.7h-2.9V151c0-1.7-1.2-2.9-2.9-2.9c-1.7,0-2.9,1.2-2.9,2.9v8.8h-2.9
			v-8.8C155.2,147.7,157.5,145.5,160.9,145.5z"/>
	</g>
	<g>
		<path class="st0" d="M176.8,145.5c2,0,4,0.9,4.8,2.3h0.1c-0.1-0.3-0.1-0.6-0.1-1.4v-6.7h2.9v20.1h-2.6v-0.9c0-0.6,0-1,0.1-1.4
			h-0.1c-0.9,1.7-2.8,2.7-5.1,2.7c-4.1,0-6.9-3-6.9-7.3S172.7,145.5,176.8,145.5z M181.7,152.8c0-2.8-1.9-4.8-4.5-4.8
			c-2.6,0-4.5,2-4.5,4.8c0,2.8,1.9,4.8,4.5,4.8C179.8,157.6,181.7,155.6,181.7,152.8z"/>
	</g>
	<g>
		<path class="st0" d="M195.1,160.2c-4.3,0-7.4-3.1-7.4-7.3c0-4.3,3.1-7.3,7.3-7.3c4,0,6.8,3.1,6.8,7.3c0,0.3,0,0.8-0.1,1h-11
			c0.4,2.3,2,3.7,4.4,3.7c1.7,0,2.9-0.6,3.9-1.9l1.7,1.7C199.3,159.3,197.4,160.2,195.1,160.2z M190.7,151.8h8.2
			c-0.2-2.2-1.8-3.7-4-3.7C192.7,148.1,191.1,149.5,190.7,151.8z"/>
	</g>
	<g>
		<path class="st0" d="M218.2,160.2c-4.3,0-7.4-3.1-7.4-7.3c0-4.3,3.1-7.3,7.3-7.3c4,0,6.8,3.1,6.8,7.3c0,0.3,0,0.8-0.1,1h-11
			c0.4,2.3,2,3.7,4.4,3.7c1.7,0,2.9-0.6,3.9-1.9l1.7,1.7C222.5,159.3,220.6,160.2,218.2,160.2z M213.9,151.8h8.2
			c-0.2-2.2-1.8-3.7-4-3.7C215.8,148.1,214.3,149.5,213.9,151.8z M218.9,139.1h3.3l-3.5,4.5H216L218.9,139.1z"/>
	</g>
	<g>
		<path class="st0" d="M238.3,150.1c-0.8-1.2-2-2-3.8-2c-2.6,0-4.4,2-4.4,4.8c0,2.8,1.8,4.8,4.4,4.8c1.8,0,3.1-0.9,3.9-2.1l1.7,1.7
			c-1.1,1.7-3.1,3-5.6,3c-4.3,0-7.4-3.1-7.4-7.3c0-4.2,3.2-7.3,7.4-7.3c2.4,0,4.3,1,5.6,2.8L238.3,150.1z"/>
	</g>
	<g>
		<path class="st0" d="M241.8,152.9c0-4.2,3.1-7.3,7.3-7.3c4.2,0,7.4,3.1,7.4,7.3c0,4.2-3.1,7.3-7.4,7.3
			C244.9,160.2,241.8,157.1,241.8,152.9z M253.5,152.8c0-2.8-1.8-4.8-4.4-4.8c-2.6,0-4.4,2-4.4,4.8c0,2.8,1.8,4.8,4.4,4.8
			C251.7,157.6,253.5,155.6,253.5,152.8z"/>
	</g>
	<g>
		<path class="st0" d="M259.7,139.7h2.9v17.5h3.4v2.5h-6.3V139.7z"/>
	</g>
	<g>
		<path class="st0" d="M274.7,160.2c-4.3,0-7.4-3.1-7.4-7.3c0-4.3,3.1-7.3,7.3-7.3c4,0,6.8,3.1,6.8,7.3c0,0.3,0,0.8-0.1,1h-11
			c0.4,2.3,2,3.7,4.4,3.7c1.7,0,2.9-0.6,3.9-1.9l1.7,1.7C279,159.3,277.1,160.2,274.7,160.2z M270.4,151.8h8.2
			c-0.2-2.2-1.8-3.7-4-3.7C272.3,148.1,270.7,149.5,270.4,151.8z"/>
	</g>
	<g>
		<path class="st0" d="M297.6,145.5c2,0,4,0.9,4.8,2.3h0.1c-0.1-0.3-0.1-0.6-0.1-1.4v-6.7h2.9v20.1h-2.6v-0.9c0-0.6,0-1,0.1-1.4
			h-0.1c-0.9,1.7-2.8,2.7-5.1,2.7c-4.1,0-6.9-3-6.9-7.3S293.4,145.5,297.6,145.5z M302.5,152.8c0-2.8-1.9-4.8-4.5-4.8
			c-2.6,0-4.5,2-4.5,4.8c0,2.8,1.9,4.8,4.5,4.8C300.6,157.6,302.5,155.6,302.5,152.8z"/>
	</g>
	<g>
		<path class="st0" d="M315,160.2c-3.3,0-5.7-2.3-5.7-5.6V146h2.9v8.7c0,1.7,1.2,2.9,2.8,2.9c1.7,0,2.8-1.2,2.8-2.9V146h2.9v8.7
			C320.7,157.9,318.3,160.2,315,160.2z"/>
	</g>
	<g>
		<path class="st0" d="M337.2,145.5c3.4,0,5.8,2.2,5.8,5.5v8.7h-2.9V151c0-1.7-1.2-2.9-2.9-2.9c-1.7,0-2.9,1.2-2.9,2.9v8.8h-2.9
			v-8.8C331.5,147.7,333.9,145.5,337.2,145.5z"/>
	</g>
	<g>
		<path class="st0" d="M352.6,160.2c-3.3,0-5.7-2.3-5.7-5.6V146h2.9v8.7c0,1.7,1.2,2.9,2.8,2.9c1.7,0,2.8-1.2,2.8-2.9V146h2.9v8.7
			C358.3,157.9,355.9,160.2,352.6,160.2z"/>
	</g>
	<g>
		<path class="st0" d="M362.4,146h19.4v13.8h-2.9v-11.3h-5.3v11.3h-2.9v-11.3h-5.3v11.3h-2.9V146z"/>
	</g>
	<g>
		<path class="st0" d="M392.3,160.2c-4.3,0-7.4-3.1-7.4-7.3c0-4.3,3.1-7.3,7.3-7.3c4,0,6.8,3.1,6.8,7.3c0,0.3,0,0.8-0.1,1h-11
			c0.4,2.3,2,3.7,4.4,3.7c1.7,0,2.9-0.6,3.9-1.9l1.7,1.7C396.6,159.3,394.7,160.2,392.3,160.2z M388,151.8h8.2
			c-0.2-2.2-1.8-3.7-4-3.7C389.9,148.1,388.3,149.5,388,151.8z M393,139.1h3.3l-3.5,4.5h-2.7L393,139.1z"/>
	</g>
	<g>
		<path class="st0" d="M408.6,146v2.6h-3.5v11.2h-2.9V146H408.6z"/>
	</g>
	<g>
		<path class="st0" d="M411,142c0-1,0.8-1.7,1.8-1.7c1,0,1.8,0.7,1.8,1.7s-0.8,1.7-1.8,1.7C411.7,143.7,411,143,411,142z
			 M411.3,159.8V146h2.9v13.8H411.3z"/>
	</g>
	<g>
		<path class="st0" d="M424.3,145.5c2.4,0,4.2,0.9,5.1,2.6h0.1c-0.1-0.3-0.1-0.7-0.1-1.3V146h2.7v19.9h-2.9v-7c0-0.6,0-0.9,0.1-1.3
			h-0.1c-0.7,1.6-2.6,2.6-4.8,2.6c-4,0-7-3-7-7.3S420.4,145.5,424.3,145.5z M420.4,152.8c0,2.8,1.9,4.8,4.5,4.8c2.6,0,4.5-2,4.5-4.8
			s-1.8-4.8-4.5-4.8C422.3,148.1,420.4,150.1,420.4,152.8z"/>
	</g>
	<g>
		<path class="st0" d="M441.9,160.2c-3.3,0-5.7-2.3-5.7-5.6V146h2.9v8.7c0,1.7,1.2,2.9,2.8,2.9c1.7,0,2.8-1.2,2.8-2.9V146h2.9v8.7
			C447.6,157.9,445.2,160.2,441.9,160.2z"/>
	</g>
	<g>
		<path class="st0" d="M458,160.2c-4.3,0-7.4-3.1-7.4-7.3c0-4.3,3.1-7.3,7.3-7.3c4,0,6.8,3.1,6.8,7.3c0,0.3,0,0.8-0.1,1h-11
			c0.4,2.3,2,3.7,4.4,3.7c1.7,0,2.9-0.6,3.9-1.9l1.7,1.7C462.3,159.3,460.3,160.2,458,160.2z M453.7,151.8h8.2
			c-0.2-2.2-1.8-3.7-4-3.7C455.6,148.1,454,149.5,453.7,151.8z"/>
	</g>
	<g>
		<path class="st0" d="M482.5,160.2c-2.2,0-4.1-0.9-4.8-2.3h-0.1c0.1,0.3,0.1,0.6,0.1,1.3v6.7h-2.9V146h2.7v0.8c0,0.6,0,1-0.1,1.3
			h0.1c0.9-1.5,2.7-2.6,5.1-2.6c4,0,6.9,3,6.9,7.3S486.5,160.2,482.5,160.2z M477.6,152.8c0,2.8,1.9,4.8,4.5,4.8
			c2.6,0,4.5-2,4.5-4.8s-1.9-4.8-4.5-4.8C479.4,148.1,477.6,150.1,477.6,152.8z"/>
	</g>
	<g>
		<path class="st0" d="M491.7,152.9c0-4.2,3.1-7.3,7.3-7.3c4.2,0,7.4,3.1,7.4,7.3c0,4.2-3.1,7.3-7.4,7.3
			C494.8,160.2,491.7,157.1,491.7,152.9z M503.5,152.8c0-2.8-1.8-4.8-4.4-4.8c-2.6,0-4.4,2-4.4,4.8c0,2.8,1.8,4.8,4.4,4.8
			C501.7,157.6,503.5,155.6,503.5,152.8z"/>
	</g>
	<g>
		<path class="st0" d="M515.2,160.2c-3.3,0-5.7-2.3-5.7-5.6V146h2.9v8.7c0,1.7,1.2,2.9,2.8,2.9c1.7,0,2.8-1.2,2.8-2.9V146h2.9v8.7
			C520.9,157.9,518.5,160.2,515.2,160.2z"/>
	</g>
	<g>
		<path class="st0" d="M531.3,146v2.6h-3.5v11.2h-2.9V146H531.3z"/>
	</g>
	<g>
		<path class="st0" d="M540.9,148.5h-1.5V146h1.5v-3.6h2.9v3.6h3.7v2.5h-3.7v8.7h3.3v2.5h-6.2V148.5z"/>
	</g>
	<g>
		<path class="st0" d="M549.2,152.9c0-4.2,3.1-7.3,7.3-7.3c4.2,0,7.4,3.1,7.4,7.3c0,4.2-3.1,7.3-7.4,7.3
			C552.3,160.2,549.2,157.1,549.2,152.9z M560.9,152.8c0-2.8-1.8-4.8-4.4-4.8c-2.6,0-4.4,2-4.4,4.8c0,2.8,1.8,4.8,4.4,4.8
			C559.1,157.6,560.9,155.6,560.9,152.8z"/>
	</g>
	<g>
		<path class="st0" d="M572.7,160.2c-3.3,0-5.7-2.3-5.7-5.6V146h2.9v8.7c0,1.7,1.2,2.9,2.8,2.9c1.7,0,2.8-1.2,2.8-2.9V146h2.9v8.7
			C578.4,157.9,576,160.2,572.7,160.2z"/>
	</g>
	<g>
		<path class="st0" d="M586.3,151.3l1.8,0.9c1.7,0.8,3,1.8,3,4c0,2.4-1.9,4.1-4.9,4.1c-2.9,0-4.5-1.7-5-3.6l2.2-1.2
			c0.2,1.1,1.2,2.4,2.8,2.4c1.1,0,2-0.6,2-1.7c0-0.8-0.5-1.3-1.8-1.9l-1.6-0.7c-1.7-0.8-3-1.7-3-4c0-2.1,1.9-3.9,4.5-3.9
			s4.1,1.4,4.8,3.1l-2.1,1.2c-0.5-1.1-1.4-1.9-2.7-1.9c-1.1,0-1.8,0.6-1.8,1.5C584.5,150.2,585,150.7,586.3,151.3z"/>
	</g>
</g>
</svg>
